<?xml version="1.0" encoding="UTF-8" standalone="no"?>
<!DOCTYPE svg PUBLIC "-//W3C//DTD SVG 1.1//EN" "http://www.w3.org/Graphics/SVG/1.1/DTD/svg11.dtd">
<svg version="1.1" xmlns="http://www.w3.org/2000/svg" xmlns:xlink="http://www.w3.org/1999/xlink" preserveAspectRatio="xMidYMid meet" viewBox="0 0 640 640" width="640" height="640"><defs><path d="M351.98 290.46C359.27 281.59 363.36 269.85 363.36 257.66C363.36 257.22 363.36 256.78 363.36 256.11C362.91 243.48 358.13 231.52 349.93 222.66C342.65 225.76 334.23 227.53 325.58 227.97C325.58 231.68 325.58 250.22 325.58 283.59C338.17 285.66 346.98 287.94 351.98 290.46Z" id="hB9z0OR2D"></path><path d="M120.45 256C120.45 318.89 149.58 374.95 195.04 411.53C190.06 414.46 165.2 429.14 120.45 455.55C240.18 455.55 306.7 455.55 320 455.55C430.21 455.55 519.55 366.21 519.55 256C519.55 145.79 430.2 56.45 320 56.45C209.79 56.45 120.45 145.79 120.45 256ZM186.68 437.8C212 423.09 226.07 414.93 228.88 413.29C174.68 381.82 138.2 323.19 138.2 256C138.2 155.6 219.59 74.21 319.99 74.21C420.4 74.21 501.79 155.6 501.79 256C501.79 356.4 420.4 437.8 319.99 437.8C302.22 437.8 257.78 437.8 186.68 437.8ZM266.56 126.7C268.31 131.77 269.28 134.59 269.47 135.15C222.52 155.32 189.55 201.97 189.55 256.22C189.55 273.88 193.1 290.7 199.43 306.1C195.13 309.85 192.39 315.36 192.39 321.5C192.39 332.75 201.56 341.92 212.81 341.92C224.07 341.92 233.23 332.75 233.23 321.5C233.23 310.24 224.07 301.08 212.81 301.08C211.02 301.08 209.29 301.33 207.62 301.77C201.94 287.68 198.77 272.32 198.77 256.23C198.77 206.02 229.16 162.81 272.48 143.92C272.69 144.51 273.7 147.47 275.54 152.8L293.66 131.98L266.56 126.7ZM212.81 332.7C206.63 332.7 201.62 327.69 201.62 321.5C201.62 315.33 206.63 310.31 212.81 310.31C218.98 310.31 224 315.33 224 321.5C224 327.68 218.98 332.7 212.81 332.7ZM453.01 256.23C453.01 190.45 404.54 135.82 341.44 126.09C339.98 116.25 331.51 108.69 321.27 108.69C310.02 108.69 300.86 117.85 300.86 129.11C300.86 140.37 310.02 149.53 321.27 149.53C330.38 149.53 338.1 143.54 340.73 135.29C399.07 144.64 443.78 195.3 443.78 256.23C443.78 262 443.32 267.65 442.54 273.2C441.96 273.07 439.04 272.4 433.79 271.19L441.88 297.57L460.69 277.38L451.56 275.28C452.52 266.89 453.01 260.54 453.01 256.23ZM310.09 129.11C310.09 122.93 315.11 117.91 321.28 117.91C327.45 117.91 332.47 122.93 332.47 129.11C332.47 135.28 327.45 140.3 321.28 140.3C315.11 140.3 310.09 135.28 310.09 129.11ZM409.33 321.5C409.33 326.82 411.39 331.65 414.74 335.29C392.25 361.84 358.72 378.73 321.29 378.73C294.14 378.73 269.07 369.83 248.74 354.83C249.14 354.37 251.15 352.08 254.78 347.96L227.71 342.53L236.56 368.68C240.21 364.53 242.24 362.22 242.64 361.76C264.61 378.18 291.82 387.94 321.29 387.94C361.88 387.94 398.18 369.45 422.36 340.5C424.66 341.4 427.16 341.91 429.76 341.91C441.02 341.91 450.18 332.74 450.18 321.48C450.18 310.23 441.01 301.09 429.75 301.09C418.5 301.09 409.33 310.24 409.33 321.5ZM418.56 321.5C418.56 315.33 423.58 310.3 429.75 310.3C435.93 310.3 440.94 315.32 440.94 321.5C440.94 327.68 435.93 332.69 429.75 332.69C423.58 332.69 418.56 327.68 418.56 321.5Z" id="bDQhOyOH8"></path><path d="M276.41 257.44C276.41 269.41 280.51 281.15 287.79 290.01C295.53 286.47 304.41 284.25 314.2 283.59C314.2 278.03 314.2 233.54 314.2 227.97C305.55 227.09 297.58 225.09 290.53 221.77C281.65 230.63 276.64 242.82 276.41 255.89C276.41 256.56 276.41 257 276.41 257.44Z" id="b92HKj52OQ"></path><path d="M264.81 255.67C265.26 240.83 270.95 226.87 280.74 216.45C275.05 212.24 270.72 207.37 267.99 202.05C253.42 216.01 245 235.29 245 255.89C245 276.5 253.42 295.11 266.85 308.62C269.36 303.75 273.23 299.1 278.23 295.33C269.59 284.92 264.81 271.62 264.81 257.44C264.81 256.78 264.81 256.11 264.81 255.67Z" id="bSFlPmPAs"></path><path d="M374.97 255.89C374.97 256.33 374.97 257 374.97 257.66C374.97 272.07 370.19 285.36 361.32 296C366.32 299.76 370.19 304.19 372.7 309.29C386.81 295.33 395 276.28 395 255.89C395 235.95 387.04 217.34 373.38 203.38C370.42 208.7 365.87 213.57 359.95 217.56C369.28 227.97 374.52 241.49 374.97 255.89Z" id="a2m4KtkIMg"></path><path d="M361.77 193.85C349.25 185.43 334.91 181 319.89 181C304.87 181 290.53 185.43 278.01 193.85C277.78 194.07 277.32 194.3 277.1 194.52C278.92 201.17 284.38 207.37 292.57 211.8C300.31 216.01 309.65 218.45 319.89 218.67C319.98 218.67 320.71 218.67 320.8 218.67C330.81 218.67 340.83 216.45 348.8 212.46C348.84 212.44 349.21 212.27 349.25 212.24C356.99 208.03 362.45 202.27 364.27 195.85C363.59 194.96 362.68 194.52 361.77 193.85C361.77 193.85 361.77 193.85 361.77 193.85Z" id="b11giGgWb4"></path><path d="M275.96 316.6C288.25 325.68 303.5 331 319.89 331C334.91 331 349.48 326.57 361.77 318.15C362.23 317.71 362.68 317.49 363.14 317.04C360.4 303.97 341.97 293.34 320.34 293.11C297.81 292.67 278.92 303.09 275.96 316.6Z" id="blg0ZTQq1"></path></defs><g><g><g><use xlink:href="#hB9z0OR2D" opacity="1" fill="#000000" fill-opacity="1"></use><g><use xlink:href="#hB9z0OR2D" opacity="1" fill-opacity="0" stroke="#000000" stroke-width="1" stroke-opacity="0"></use></g></g><g><use xlink:href="#bDQhOyOH8" opacity="1" fill="#000000" fill-opacity="1"></use><g><use xlink:href="#bDQhOyOH8" opacity="1" fill-opacity="0" stroke="#000000" stroke-width="1" stroke-opacity="0"></use></g></g><g><use xlink:href="#b92HKj52OQ" opacity="1" fill="#000000" fill-opacity="1"></use><g><use xlink:href="#b92HKj52OQ" opacity="1" fill-opacity="0" stroke="#000000" stroke-width="1" stroke-opacity="0"></use></g></g><g><use xlink:href="#bSFlPmPAs" opacity="1" fill="#000000" fill-opacity="1"></use><g><use xlink:href="#bSFlPmPAs" opacity="1" fill-opacity="0" stroke="#000000" stroke-width="1" stroke-opacity="0"></use></g></g><g><use xlink:href="#a2m4KtkIMg" opacity="1" fill="#000000" fill-opacity="1"></use><g><use xlink:href="#a2m4KtkIMg" opacity="1" fill-opacity="0" stroke="#000000" stroke-width="1" stroke-opacity="0"></use></g></g><g><use xlink:href="#b11giGgWb4" opacity="1" fill="#000000" fill-opacity="1"></use><g><use xlink:href="#b11giGgWb4" opacity="1" fill-opacity="0" stroke="#000000" stroke-width="1" stroke-opacity="0"></use></g></g><g><use xlink:href="#blg0ZTQq1" opacity="1" fill="#000000" fill-opacity="1"></use><g><use xlink:href="#blg0ZTQq1" opacity="1" fill-opacity="0" stroke="#000000" stroke-width="1" stroke-opacity="0"></use></g></g></g></g></svg>
