<?xml version="1.0" standalone="no"?>
<!DOCTYPE svg PUBLIC "-//W3C//DTD SVG 1.0//EN" "http://www.w3.org/TR/2001/REC-SVG-20010904/DTD/svg10.dtd">
<svg xmlns="http://www.w3.org/2000/svg" xmlns:xlink="http://www.w3.org/1999/xlink" id="body_1" width="32" height="24">

<g transform="matrix(0.03125 0 0 0.03125 0 0)">
	<g transform="matrix(7.68 0 0 7.68 128 0)">
	</g>
    <path transform="matrix(7.68 0 0 7.68 128 0)"  d="M39.769 12.172L30.96 10.455L31.905 13.205C 16.64 19.761 5.918 34.932 5.918 52.57C 5.918 58.311 7.074 63.782 9.133 68.79C 7.734 70.009 6.843 71.798 6.843 73.795C 6.843 77.456 9.822001 80.435 13.482 80.435C 17.142 80.435 20.121 77.45599 20.121 73.795C 20.121 70.134 17.142 67.155 13.482 67.155C 12.898 67.155 12.334 67.238 11.794 67.381C 9.949 62.799 8.918001 57.806 8.918001 52.57C 8.918001 36.245 18.796 22.196 32.884 16.053L32.884 16.053L33.877 18.943L39.769 12.172zM17.122 73.795C 17.122 75.802 15.49 77.435 13.483 77.435C 11.476 77.435 9.844 75.80199 9.844 73.795C 9.844 71.788 11.476 70.155 13.483 70.155C 15.49 70.155 17.122 71.788 17.122 73.795zM91.111 58.763C 91.41 56.74 91.584 54.676 91.584 52.571C 91.584 31.184 75.823 13.423 55.309 10.256C 54.831 7.06 52.077 4.599 48.751 4.599C 45.09 4.599 42.112 7.578001 42.112 11.239C 42.112 14.9 45.091 17.879 48.751 17.879C 51.711 17.879 54.223 15.931 55.077 13.25C 74.044 16.29 88.584 32.762 88.584 52.573C 88.584 54.448 88.435 56.286 88.18 58.091L88.18 58.091L85.334 57.437L87.966 66.01801L94.082 59.45L91.111 58.763zM48.751 14.877C 46.744 14.877 45.112 13.244 45.112 11.237C 45.112 9.23 46.744 7.596999 48.751 7.596999C 50.758 7.596999 52.39 9.23 52.39 11.237C 52.39 13.244 50.758 14.877 48.751 14.877zM84.021 67.155C 80.36 67.155 77.381 70.134 77.381 73.795C 77.381 75.52399 78.051 77.097 79.13901 78.279C 71.82701 86.909 60.92201 92.403 48.75101 92.403C 39.92601 92.403 31.77101 89.507 25.16201 84.631L25.16201 84.631L27.12501 82.397L18.32401 80.63699L21.20201 89.13899L23.17801 86.88999C 30.32001 92.22799 39.16801 95.40399 48.75101 95.40399C 61.94701 95.40399 73.75201 89.39099 81.61501 79.97699C 82.36201 80.26899 83.172 80.43499 84.02 80.43499C 87.68001 80.43499 90.659 77.45599 90.659 73.79499C 90.659 70.13399 87.681 67.155 84.021 67.155zM84.021 77.435C 82.01401 77.435 80.381 75.80199 80.381 73.795C 80.381 71.788 82.01401 70.155 84.021 70.155C 86.028 70.155 87.66 71.788 87.66 73.795C 87.66 75.80199 86.027 77.435 84.021 77.435z" stroke="#FFFFFF" stroke-width="2" fill="#000000" fill-rule="nonzero" stroke-opacity="0" />
</g>
</svg>